<svg width="38" height="44" viewBox="0 0 38 44" fill="none" xmlns="http://www.w3.org/2000/svg">
<path d="M34.0338 0.793081C34.2507 1.04921 34.417 1.34406 34.5327 1.65908C34.6412 1.97409 34.6412 2.31851 34.7062 2.67972V2.68812V10.7525C34.7062 12.2394 33.6723 13.4406 32.3925 13.4406C31.1127 13.4406 30.0788 12.2394 30.0788 10.7525V9.18163L22.4578 18.0272C21.6046 19.0269 20.2381 19.0857 19.3198 18.17L12.6606 11.6009L6.13288 18.17C5.16328 19.1361 3.702 19.0017 2.8705 17.876C2.03899 16.7504 2.15179 15.0535 3.12139 14.0875L11.2217 6.02308C12.0893 5.16036 13.3619 5.16036 14.2296 6.02308L20.7008 12.4662L26.8033 5.37625H25.4513C24.1715 5.37625 23.1375 4.17247 23.1375 2.68812C23.1375 1.20378 24.1715 0 25.4513 0H32.3274C33.0288 0 33.6072 0.29855 34.0266 0.781656L34.0338 0.793081ZM0 25.5372C0 23.3111 1.55383 21.505 3.47062 21.505H33.5494C35.4655 21.505 37.02 23.3111 37.02 25.5372V38.9778C37.02 41.2039 35.4655 43.01 33.5494 43.01H3.47062C1.55383 43.01 0 41.2039 0 38.9778V25.5372ZM3.47062 38.9778H6.94125C6.94125 36.7517 5.38742 34.9456 3.47062 34.9456V38.9778ZM3.47062 25.5372V29.5694C5.38742 29.5694 6.94125 27.7633 6.94125 25.5372H3.47062ZM33.5494 34.9456C31.6333 34.9456 30.0788 36.7517 30.0788 38.9778H33.5494V34.9456ZM30.0788 25.5372C30.0788 27.7633 31.6333 29.5694 33.5494 29.5694V25.5372H30.0788ZM18.51 26.8812C15.9576 26.8812 13.8825 29.2922 13.8825 32.2575C13.8825 35.2228 15.9576 37.6337 18.51 37.6337C21.0624 37.6337 23.1375 35.2228 23.1375 32.2575C23.1375 29.2922 21.0624 26.8812 18.51 26.8812Z" fill="#0F9D58"/>
</svg>
