<svg width="38" height="44" viewBox="0 0 38 44" fill="none" xmlns="http://www.w3.org/2000/svg">
<path d="M18.3179 12.4964C18.5739 13.5546 18.5822 14.6632 18.3592 15.7298C18.128 16.7292 17.6572 17.8042 16.9965 18.6608C15.7989 20.0466 14.3041 20.9284 12.4954 21.3483V39.6485C12.4954 40.5387 12.2228 41.3954 11.6034 42.0253C10.984 42.6552 10.1416 43.0079 9.1918 43.0079C8.39068 43.0079 7.54992 42.6552 6.92968 42.0253C6.31026 41.3954 5.88823 40.5387 5.88823 39.6485V21.3483C4.22488 21.0124 2.65568 20.0717 1.52751 18.686C0.857712 17.8294 0.390174 16.83 0.161071 15.755C-0.0680313 14.68 -0.0525458 13.5714 0.20633 12.5048L2.70111 1.05348C2.77131 0.729974 2.95713 0.444343 3.22224 0.251431C3.48653 0.0584351 3.81276 -0.0282116 4.13651 0.00809487C4.46108 0.0440066 4.76171 0.201293 4.97974 0.44955C5.19778 0.697724 5.31671 1.01905 5.31506 1.35163V13.4454H6.74963L8.16109 1.00813C8.19412 0.733082 8.32461 0.479953 8.53109 0.296279C8.7293 0.112689 8.99359 0.0112443 9.1918 0.0112443C9.53867 0.0112443 9.80296 0.112689 10.0012 0.296279C10.2076 0.479953 10.2655 0.733082 10.3728 1.00813L11.7851 13.4454H13.1561V1.35163C13.1561 1.02157 13.346 0.702259 13.4864 0.454422C13.7755 0.206584 14.0728 0.0476851 14.3949 0.00809487C14.717 -0.0279176 14.9731 0.0598629 15.3117 0.254455C15.576 0.449047 15.7577 0.736609 15.832 1.06188L18.3179 12.4964ZM37.0161 39.6485C37.0161 40.5387 36.6693 41.3954 36.0498 42.0253C35.4304 42.6552 34.588 43.0079 33.7126 43.0079C32.8371 43.0079 31.9947 42.6552 31.3753 42.0253C30.7559 41.3954 30.409 40.5387 30.409 39.6485V29.5704H29.0215C28.3277 29.5704 27.634 29.4276 26.9898 29.1589C26.3539 28.8817 25.7675 28.487 25.2719 27.9831C24.7847 27.4792 24.3965 26.8829 24.0579 26.2278C23.8679 25.5727 23.7358 24.8673 23.7358 24.1618L23.7275 14.6044C23.8019 11.5053 24.7186 8.4735 26.4282 5.9103C28.1378 3.3429 30.5577 1.35583 33.3905 0.204316C33.7208 0.0415542 34.2246 -0.0190153 34.6541 0.0279572C35.0836 0.0749129 35.4965 0.227916 35.8516 0.473654C36.2068 0.719392 36.5041 1.05012 36.7023 1.43813C36.9088 1.8253 36.9418 2.25698 37.0161 2.69538V39.6485Z" fill="#E56372"/>
</svg>
