<svg width="38" height="44" viewBox="0 0 38 44" fill="none" xmlns="http://www.w3.org/2000/svg">
<path d="M2.31375 5.37625C2.31375 2.40671 4.38528 0 6.94125 0H18.51C21.0624 0 23.1375 2.40671 23.1375 5.37625V21.505H23.7159C27.2299 21.505 30.0788 24.8148 30.0788 28.8973V31.5855C30.0788 32.7027 30.8524 33.6016 31.8141 33.6016C32.7757 33.6016 33.5494 32.7027 33.5494 31.5855V18.5733C31.5538 18.0524 30.0788 15.9439 30.0788 13.4406V8.06437L27.765 5.37625C27.1287 4.63366 27.1287 3.43072 27.765 2.68812C28.4013 1.94553 29.4425 1.94553 30.0788 2.68812L35.6679 9.18163C36.5356 10.1897 37.02 11.5505 37.02 12.9786V31.5855C37.02 34.9288 34.6918 37.6337 31.8141 37.6337C28.9363 37.6337 26.6081 34.9288 26.6081 31.5855V28.8973C26.6081 27.0409 25.3139 25.4616 23.7159 25.4616H23.1375V37.6337C24.4173 37.6337 25.4513 38.835 25.4513 40.3219C25.4513 41.8087 24.4173 43.01 23.1375 43.01H2.31375C1.03613 43.01 0 41.8087 0 40.3219C0 38.835 1.03613 37.6337 2.31375 37.6337V5.37625ZM6.94125 14.7847C6.94125 15.5239 7.46184 16.1287 8.09813 16.1287H17.3531C17.9894 16.1287 18.51 15.5239 18.51 14.7847V6.72031C18.51 5.97772 17.9894 5.37625 17.3531 5.37625H8.09813C7.46184 5.37625 6.94125 5.97772 6.94125 6.72031V14.7847Z" fill="#E56372"/>
</svg>
