<svg width="38" height="44" viewBox="0 0 38 44" fill="none" xmlns="http://www.w3.org/2000/svg">
<path d="M37.0087 21.463C37.0087 22.9751 36.0446 24.1595 34.9519 24.1595H32.8952L32.9402 37.6085C32.9402 37.8438 32.9273 38.0622 32.908 38.289V39.6498C32.908 41.5063 31.7575 43.01 30.3371 43.01H29.3087C29.238 43.01 29.1673 42.9344 29.0966 43.0016C29.0066 42.9344 28.9167 43.01 28.8267 43.01H25.1952C23.7748 43.01 22.6243 41.5063 22.6243 39.6498V32.2575C22.6243 30.7706 21.7052 29.5694 20.5675 29.5694H16.454C15.3164 29.5694 14.3973 30.7706 14.3973 32.2575V39.6498C14.3973 41.5063 13.2468 43.01 11.8263 43.01H8.23344C8.13703 43.01 8.04062 43.0016 7.94421 42.9932C7.86708 43.0016 7.78995 43.01 7.71282 43.01H6.68444C5.26464 43.01 4.1135 41.5063 4.1135 39.6498V30.2414C4.1135 30.1658 4.11543 30.0818 4.11929 30.0062V24.1595H2.05997C0.901114 24.1595 0 22.9751 0 21.463C0 20.707 0.193078 20.0349 0.643378 19.4469L17.1225 0.673375C17.5724 0.0841719 18.0866 0 18.5365 0C18.9864 0 19.5006 0.168344 19.8927 0.589203L36.3017 19.4469C36.8159 20.0349 37.0794 20.707 37.0087 21.463Z" fill="#E56372"/>
</svg>
