<svg width="38" height="44" viewBox="0 0 38 44" fill="none" xmlns="http://www.w3.org/2000/svg">
<path d="M9.255 9.40844C9.255 4.21196 13.395 0 18.51 0C23.625 0 27.765 4.21196 27.765 9.40844V13.4406H33.0536C35.2434 13.4406 37.02 15.2467 37.02 17.4728V34.9456C37.02 39.3978 33.4667 43.01 29.0871 43.01H7.93286C3.55161 43.01 0 39.3978 0 34.9456V17.4728C0 15.2467 1.7758 13.4406 3.96643 13.4406H9.255V9.40844ZM13.2214 13.4406H23.7986V9.40844C23.7986 6.4389 21.427 4.03219 18.51 4.03219C15.593 4.03219 13.2214 6.4389 13.2214 9.40844V13.4406ZM11.2382 21.505C12.3372 21.505 13.2214 20.6062 13.2214 19.4889C13.2214 18.3717 12.3372 17.4728 11.2382 17.4728C10.1392 17.4728 9.255 18.3717 9.255 19.4889C9.255 20.6062 10.1392 21.505 11.2382 21.505ZM25.7818 17.4728C24.6828 17.4728 23.7986 18.3717 23.7986 19.4889C23.7986 20.6062 24.6828 21.505 25.7818 21.505C26.8808 21.505 27.765 20.6062 27.765 19.4889C27.765 18.3717 26.8808 17.4728 25.7818 17.4728Z" fill="#E56372"/>
</svg>
