<svg width="38" height="44" viewBox="0 0 38 44" fill="none" xmlns="http://www.w3.org/2000/svg">
<path d="M2.86631 15.8215L5.41277 6.17213C6.38751 2.475 9.01646 0 11.9689 0H25.0811C28.0335 0 30.6603 2.475 31.6372 6.17213L34.1844 15.8215C35.8632 16.7432 37.05 18.9417 37.05 21.505V39.9379C37.05 41.6371 36.0152 43.01 34.7344 43.01H32.4187C31.1379 43.01 30.1031 41.6371 30.1031 39.9379V35.3296H6.94687V39.9379C6.94687 41.6371 5.90991 43.01 4.63125 43.01H2.31562C1.03697 43.01 0 41.6371 0 39.9379V21.505C0 18.9417 1.18386 16.7432 2.86631 15.8215ZM7.89483 15.3607H29.1552L27.2665 8.19878C26.9408 6.96992 26.0653 6.14429 25.0811 6.14429H11.9689C10.9847 6.14429 10.1091 6.96992 9.78352 8.19878L7.89483 15.3607ZM6.94687 21.505C5.66822 21.505 4.63125 22.8779 4.63125 24.5771C4.63125 26.2764 5.66822 27.6493 6.94687 27.6493C8.2277 27.6493 9.2625 26.2764 9.2625 24.5771C9.2625 22.8779 8.2277 21.505 6.94687 21.505ZM30.1031 27.6493C31.384 27.6493 32.4187 26.2764 32.4187 24.5771C32.4187 22.8779 31.384 21.505 30.1031 21.505C28.8223 21.505 27.7875 22.8779 27.7875 24.5771C27.7875 26.2764 28.8223 27.6493 30.1031 27.6493Z" fill="#E56372"/>
</svg>
